HIERARCHY
ROOT Hips
{
	OFFSET 0.000000 0.000000 0.000000
	CHANNELS 6 Xposition Yposition Zposition Zrotation Yrotation Xrotation 
	JOINT LeftUpLeg_virtual
	{
		OFFSET 0.000000 0.000000 0.000000
		CHANNELS 3 Zrotation Yrotation Xrotation
		JOINT LeftUpLeg
		{
			OFFSET 8.479694 -4.795517 -0.379053
			CHANNELS 3 Zrotation Yrotation Xrotation
			JOINT LeftLeg
			{
				OFFSET 0.485052 -32.551468 0.112863
				CHANNELS 3 Zrotation Yrotation Xrotation
				JOINT LeftFoot
				{
					OFFSET 0.438033 -32.635670 -3.012641
					CHANNELS 3 Zrotation Yrotation Xrotation
					JOINT LeftToeBase
					{
						OFFSET 0.970169 -13.225353 11.864223
						CHANNELS 3 Zrotation Yrotation Xrotation
						End Site
						{
							OFFSET 0.000000 0.000000 0.000000
						}
					}
				}
			}
		}
	}
	JOINT RightUpLeg_virtual
	{
		OFFSET 0.000000 0.000000 0.000000
		CHANNELS 3 Zrotation Yrotation Xrotation
		JOINT RightUpLeg
		{
			OFFSET -8.479694 -4.795517 -0.379053
			CHANNELS 3 Zrotation Yrotation Xrotation
			JOINT RightLeg
			{
				OFFSET -0.484100 -32.551483 0.112903
				CHANNELS 3 Zrotation Yrotation Xrotation
				JOINT RightFoot
				{
					OFFSET -0.438985 -32.635651 -3.012681
					CHANNELS 3 Zrotation Yrotation Xrotation
					JOINT RightToeBase
					{
						OFFSET -0.970169 -13.225354 11.864223
						CHANNELS 3 Zrotation Yrotation Xrotation
						End Site
						{
							OFFSET 0.000000 0.000000 0.000000
						}
					}
				}
			}
		}
	}
	JOINT Spine_virtual
	{
		OFFSET 0.000000 0.000000 0.000000
		CHANNELS 3 Zrotation Yrotation Xrotation
		JOINT Spine
		{
			OFFSET 0.000000 7.722015 1.166203
			CHANNELS 3 Zrotation Yrotation Xrotation
			JOINT Spine1
			{
				OFFSET 0.000000 12.024086 0.248766
				CHANNELS 3 Zrotation Yrotation Xrotation
				JOINT Spine2
				{
					OFFSET -0.000000 11.503036 -0.491240
					CHANNELS 3 Zrotation Yrotation Xrotation
					JOINT Neck_virtual
					{
						OFFSET 0.000000 0.000000 0.000000
						CHANNELS 3 Zrotation Yrotation Xrotation
						JOINT Neck
						{
							OFFSET 0.000000 18.430687 -3.123054
							CHANNELS 3 Zrotation Yrotation Xrotation
							JOINT Head
							{
								OFFSET -0.000000 9.051071 1.034021
								CHANNELS 3 Zrotation Yrotation Xrotation
								End Site
								{
									OFFSET 0.000000 0.000000 0.000000
								}
							}
						}
					}
					JOINT LeftShoulder_virtual
					{
						OFFSET 0.000000 0.000000 0.000000
						CHANNELS 3 Zrotation Yrotation Xrotation
						JOINT LeftShoulder
						{
							OFFSET 6.197824 13.665230 -4.064723
							CHANNELS 3 Zrotation Yrotation Xrotation
							JOINT LeftArm
							{
								OFFSET 7.778132 -0.187073 -1.709282
								CHANNELS 3 Zrotation Yrotation Xrotation
								JOINT LeftForeArm
								{
									OFFSET 21.954697 0.000000 -2.041093
									CHANNELS 3 Zrotation Yrotation Xrotation
									JOINT LeftHand
									{
										OFFSET 22.992908 0.000000 -0.870901
										CHANNELS 3 Zrotation Yrotation Xrotation
										End Site
										{
											OFFSET 0.000000 0.000000 0.000000
										}
									}
								}
							}
						}
					}
					JOINT RightShoulder_virtual
					{
						OFFSET 0.000000 0.000000 0.000000
						CHANNELS 3 Zrotation Yrotation Xrotation
						JOINT RightShoulder
						{
							OFFSET -6.197824 13.665230 -4.064723
							CHANNELS 3 Zrotation Yrotation Xrotation
							JOINT RightArm
							{
								OFFSET -7.778132 -0.187073 -1.709282
								CHANNELS 3 Zrotation Yrotation Xrotation
								JOINT RightForeArm
								{
									OFFSET -21.954697 0.000000 -2.041093
									CHANNELS 3 Zrotation Yrotation Xrotation
									JOINT RightHand
									{
										OFFSET -22.992908 0.000000 -0.870901
										CHANNELS 3 Zrotation Yrotation Xrotation
										End Site
										{
											OFFSET 0.000000 0.000000 0.000000
										}
									}
								}
							}
						}
					}
				}
			}
		}
	}
}
MOTION
Frames: 5
Frame Time: 0.033333
13.175276 79.306877 -84.159866 179.613348 -23.234504 -179.803473 -1.674963 4.031057 36.469662 7.081816 1.909471 -54.706475 1.687723 3.674775 22.246292 -7.411368 -3.661097 -3.046347 0.000000 0.000000 0.000000 4.669132 -0.322347 36.139586 -1.715420 -8.201308 -59.776518 1.743313 2.979689 40.783155 6.561804 5.485683 -4.106101 0.000000 0.000000 0.000000 7.432316 -0.492995 53.146248 4.415846 0.987838 36.327970 -3.291141 -6.379476 11.353600 0.056434 -0.060163 0.005523 -1.606337 -7.655069 11.073873 1.921271 -2.182851 -13.188801 0.000000 0.000000 0.000000 -0.654057 -6.429707 5.418909 12.753223 3.200648 2.269944 14.545028 -39.848727 -80.496778 -48.536946 -66.955211 26.697444 0.000000 0.000000 0.000000 -4.904481 -4.802804 5.404798 16.243853 18.787960 -2.909043 2.406652 57.494552 -7.772392 -14.740030 32.816986 -3.667495 0.000000 0.000000 0.000000 
13.174725 79.344337 -84.157295 179.617596 -23.502092 -179.885381 -1.787270 3.984183 36.281459 7.305787 1.865587 -54.527825 1.710707 3.783652 22.395195 -7.464511 -3.700684 -2.952663 0.000000 0.000000 0.000000 4.523111 -0.405346 36.004174 -1.629928 -8.139915 -59.496842 1.745589 2.917415 40.614661 6.434759 5.499711 -3.965351 0.000000 0.000000 0.000000 7.264323 -0.578438 52.914743 4.242026 0.982305 36.115933 -3.267784 -6.218747 11.471831 0.025517 -0.030473 0.052331 -1.520014 -7.300370 11.050427 1.899671 -2.279841 -13.331188 0.000000 0.000000 0.000000 -0.601484 -6.362298 5.461624 12.529528 3.036194 2.136905 15.071996 -40.420213 -80.969113 -48.220692 -66.998944 26.463857 0.000000 0.000000 0.000000 -4.870888 -4.769609 5.349271 16.199170 18.543818 -2.791932 1.730305 56.140511 -9.432635 -14.861170 32.361935 -3.951073 0.000000 0.000000 0.000000 
13.167325 79.381073 -84.180923 179.583391 -23.537472 -179.777942 -1.932573 3.891484 36.188849 7.545786 1.798025 -54.560036 1.748394 3.975350 22.494318 -7.443892 -3.705819 -2.931627 0.000000 0.000000 0.000000 4.397385 -0.427511 35.760801 -1.554716 -8.107117 -59.330090 1.752430 2.898370 40.588331 6.335966 5.524446 -3.851393 0.000000 0.000000 0.000000 6.965852 -0.425485 52.620822 4.043390 1.075233 35.753452 -3.285097 -6.065168 11.556915 0.089771 -0.031084 0.071781 -1.614337 -7.203076 11.143112 1.802890 -2.449944 -13.520242 0.000000 0.000000 0.000000 -0.670363 -6.157829 5.592784 12.266597 2.955696 2.033443 15.329169 -40.932357 -81.253057 -47.719827 -66.872101 26.373724 0.000000 0.000000 0.000000 -4.886756 -4.649817 5.515186 16.376833 18.384380 -2.724329 1.255642 55.273900 -11.401842 -14.769751 31.978819 -4.034402 0.000000 0.000000 0.000000 
13.177738 79.414284 -84.229713 179.570345 -23.968840 -179.788187 -2.063418 3.753948 36.049971 7.785498 1.724113 -54.506866 1.773936 3.992309 22.708723 -7.499088 -3.814647 -2.845467 0.000000 0.000000 0.000000 4.304340 -0.519549 35.655462 -1.446205 -8.156623 -59.101463 1.753603 2.789769 40.594724 6.230727 5.517126 -3.885393 0.000000 0.000000 0.000000 6.851398 -0.590277 52.347680 3.885465 1.078750 35.326626 -3.251783 -5.919063 11.703778 0.042531 -0.043755 -0.007937 -1.630221 -7.169638 11.294169 1.715570 -2.433725 -13.625129 0.000000 0.000000 0.000000 -0.651516 -5.992566 5.675215 11.862983 2.641411 1.870054 15.196273 -41.194572 -80.979563 -46.646476 -66.680241 25.809760 0.000000 0.000000 0.000000 -4.924999 -4.328826 5.596852 16.645465 18.039841 -2.612578 1.366379 54.708354 -13.216967 -14.607432 31.558056 -4.246343 0.000000 0.000000 0.000000 
13.196523 79.447151 -84.278091 179.542068 -24.147260 -179.772956 -2.178174 3.633746 35.896431 7.967773 1.746052 -54.433978 1.794653 4.182655 22.848410 -7.518555 -3.926590 -2.789742 0.000000 0.000000 0.000000 4.220192 -0.601999 35.445000 -1.387058 -8.150206 -58.868048 1.766655 2.744996 40.552875 6.200761 5.538698 -3.748612 0.000000 0.000000 0.000000 6.785782 -0.619183 52.023707 3.683554 1.201829 34.823036 -3.314670 -5.821920 11.895618 0.014035 -0.175002 -0.006683 -1.596178 -6.765696 11.461416 1.678679 -2.654935 -13.822435 0.000000 0.000000 0.000000 -0.644968 -5.720491 5.940810 11.356379 2.227801 1.660710 14.998298 -41.653393 -80.544965 -45.244481 -66.271591 25.113692 0.000000 0.000000 0.000000 -4.867601 -4.131601 5.724214 16.865991 17.856109 -2.510098 2.020123 54.486717 -14.695442 -14.458612 31.098220 -4.517521 0.000000 0.000000 0.000000 
